<svg width="40" height="40" viewBox="0 0 40 40" fill="none" xmlns="http://www.w3.org/2000/svg">
<path d="M19.7777 0.00124648C23.5439 -0.0405337 27.2453 0.982007 30.456 2.95117C33.6667 4.92034 36.256 7.75609 37.9261 11.132C39.5961 14.508 40.2789 18.2869 39.8959 22.0338C39.5129 25.7807 38.0797 29.3433 35.7612 32.3115C33.4426 35.2797 30.3331 37.533 26.7904 38.8118C23.2478 40.0907 19.416 40.3432 15.7361 39.5403C12.0563 38.7374 8.67795 36.9118 5.98996 34.2734C3.30197 31.6351 1.4136 28.2914 0.542204 24.6272L4.41829 23.7054C5.11609 26.6397 6.62828 29.3173 8.7808 31.4301C10.9333 33.5428 13.6387 35.0048 16.5855 35.6477C19.5323 36.2907 22.6007 36.0884 25.4376 35.0643C28.2746 34.0402 30.7647 32.2359 32.6213 29.8589C34.4779 27.482 35.6257 24.6291 35.9324 21.6286C36.2391 18.6281 35.6923 15.602 34.3549 12.8986C33.0176 10.1952 30.9441 7.92435 28.373 6.34746C25.8019 4.77056 22.8378 3.95172 19.8219 3.98518L19.7777 0.00124648Z" fill="#5453E0"/>
</svg>
